<?xml version="1.0" encoding="UTF-8" standalone="no"?>
<!-- Created with Inkscape (http://www.inkscape.org/) -->

<svg
   version="1.1"
   id="svg2"
   width="728.63568"
   height="733.92181"
   viewBox="0 0 728.63568 733.92181"
   sodipodi:docname="proleTRact_logo.svg"
   inkscape:version="1.2.2 (b0a8486541, 2022-12-01)"
   xmlns:inkscape="http://www.inkscape.org/namespaces/inkscape"
   xmlns:sodipodi="http://sodipodi.sourceforge.net/DTD/sodipodi-0.dtd"
   xmlns="http://www.w3.org/2000/svg"
   xmlns:svg="http://www.w3.org/2000/svg">
  <defs
     id="defs6" />
  <sodipodi:namedview
     id="namedview4"
     pagecolor="#ffffff"
     bordercolor="#000000"
     borderopacity="0.25"
     inkscape:showpageshadow="2"
     inkscape:pageopacity="0.0"
     inkscape:pagecheckerboard="0"
     inkscape:deskcolor="#d1d1d1"
     showgrid="false"
     inkscape:zoom="0.36473536"
     inkscape:cx="1793.0809"
     inkscape:cy="398.91936"
     inkscape:window-width="1854"
     inkscape:window-height="1131"
     inkscape:window-x="0"
     inkscape:window-y="0"
     inkscape:window-maximized="1"
     inkscape:current-layer="g8" />
  <g
     inkscape:groupmode="layer"
     inkscape:label="Image"
     id="g8"
     transform="translate(-157.66493,-131.53249)">
    <path
       style="fill:#ffffff"
       d="m 331.16493,863.93925 c -19.7087,-4.88355 -30.1644,-20.01849 -29.3076,-42.42357 2.0653,-54.00922 81.3076,-51.73588 81.3076,2.33259 0,28.94222 -23.5909,47.13036 -52,40.09098 z m 17.75,-2.0066 c 1.5125,-0.18391 2.8625,-0.44194 3,-0.5734 0.1375,-0.13146 1.5938,-0.39392 3.2361,-0.58323 1.6424,-0.18932 3.1433,-0.81581 3.3354,-1.39221 0.1922,-0.5764 0.7609,-0.79364 1.2639,-0.48275 0.5031,0.31088 0.9146,0.0621 0.9146,-0.55279 0,-0.61492 0.45,-0.83992 1,-0.5 0.55,0.33992 1,0.0665 1,-0.60765 0,-0.67413 0.288,-0.93773 0.6399,-0.58579 1.9721,1.97211 14.8225,-12.68625 15.6103,-17.80656 0.1692,-1.1 0.6891,-2.6117 1.1554,-3.35934 1.336,-2.14246 1.7494,-18.24896 0.5069,-19.74616 -0.5966,-0.71879 -0.8136,-1.74551 -0.4822,-2.2816 0.3313,-0.53609 0.1377,-1.26189 -0.4303,-1.6129 -0.5679,-0.35101 -0.7929,-1.02601 -0.5,-1.5 0.293,-0.47399 0.068,-1.14899 -0.5,-1.5 -0.5679,-0.35101 -0.7737,-1.0571 -0.4573,-1.5691 0.3165,-0.51199 0.072,-0.9309 -0.5427,-0.9309 -0.6149,0 -0.8399,-0.45 -0.5,-1 0.34,-0.55 0.1415,-1 -0.4409,-1 -0.5825,0 -0.9466,-0.41253 -0.8091,-0.91673 0.7706,-2.82563 -14.0614,-15.93585 -16.3962,-14.49286 -0.4696,0.29019 -0.8538,-0.0239 -0.8538,-0.69806 0,-0.67413 -0.2961,-0.92959 -0.658,-0.56769 -0.3619,0.36189 -1.1923,0.21455 -1.8453,-0.32743 -1.0867,-0.90191 -9.9221,-2.37925 -13.4967,-2.25674 -3.3056,0.11329 -12.0924,1.55772 -14,2.30142 -0.275,0.10721 -0.8375,0.14164 -1.25,0.0765 -0.4125,-0.0651 -0.75,0.35814 -0.75,0.9406 0,0.58246 -0.4137,0.80332 -0.9193,0.49081 -0.5057,-0.31252 -1.5771,0.0895 -2.381,0.89336 -0.8039,0.80386 -1.7295,1.19359 -2.0571,0.86606 -0.3275,-0.32753 -0.8782,0.14132 -1.2238,1.04188 -0.3456,0.90056 -0.9791,1.42061 -1.4078,1.15567 -1.0831,-0.66941 -9.011,8.10293 -9.011,9.97087 0,0.83729 -0.4765,1.52234 -1.059,1.52234 -0.5824,0 -0.7809,0.45 -0.441,1 0.34,0.55 0.1415,1 -0.4409,1 -0.5825,0 -1.0591,0.87344 -1.0591,1.94098 0,1.06754 -0.4806,2.23806 -1.0681,2.60115 -0.5875,0.3631 -0.8435,1.24566 -0.5689,1.96125 0.2746,0.7156 0.214,1.58631 -0.1346,1.9349 -0.967,0.96705 -1.1062,17.51916 -0.1523,18.10874 0.4601,0.28437 0.5831,1.17762 0.2733,1.98501 -0.3099,0.80738 -0.017,1.46797 0.6506,1.46797 0.6683,0 0.9553,0.67431 0.6384,1.5 -0.3166,0.825 -0.1397,1.5 0.393,1.5 0.5328,0 0.8795,0.3375 0.7705,0.75 -0.3716,1.40674 1.3301,5.25 2.3245,5.25 0.5454,0 0.7582,0.37782 0.4728,0.8396 -0.492,0.79605 7.549,9.1604 8.8063,9.1604 0.327,0 1.5109,0.91641 2.631,2.03647 1.1201,1.12007 2.4701,1.76851 3,1.44099 0.5299,-0.32752 0.9635,-0.0708 0.9635,0.57051 0,0.6413 0.675,0.90699 1.5,0.5904 0.825,-0.31658 1.5,-0.15385 1.5,0.36163 0,0.51548 0.6295,0.69568 1.3989,0.40044 0.7694,-0.29523 1.7004,-0.0488 2.0691,0.5477 0.3686,0.59647 1.0476,0.85127 1.5088,0.56623 0.4612,-0.28504 1.8926,-0.077 3.1809,0.46226 1.2883,0.53927 3.9173,0.74687 5.8423,0.46132 1.925,-0.28556 4.7375,-0.66966 6.25,-0.85357 z m -14.8713,-14.06244 c -2.9732,-1.35517 -11.3787,-9.92235 -11.3787,-11.59763 0,-0.43676 -0.5071,-2.06091 -1.1269,-3.60921 -0.9685,-2.4191 -1.5273,-12.8256 -0.809,-15.0651 0.1323,-0.4125 0.2913,-1.25069 0.3534,-1.86264 0.2858,-2.81852 6.8143,-11.51237 10.4536,-13.92071 17.251,-11.41622 36.2576,5.50115 32.8258,29.21754 -1.7749,12.26547 -19.1629,21.92221 -30.3182,16.83775 z m 14.4035,-2.07499 c 19.2515,-8.04185 18.1996,-38.59055 -1.5322,-44.49234 -11.8133,-3.5334 -24.3661,8.64124 -24.2061,23.47689 0.1627,15.07502 13.6317,26.07263 25.7383,21.01545 z m 112.2178,17.73877 c -41.9974,-10.97744 -39.2674,-73.31749 3.5212,-80.4078 26.5717,-4.40306 45.925,14.18288 43.7052,41.97208 -0.4194,5.25 -0.4194,5.25 -27.9479,5.25 -27.5285,0 -27.5285,0 -26.9116,3.08416 2.5416,12.70825 22.3849,18.08599 39.0076,10.57147 8.0059,-3.61921 8.1545,-3.56275 10.004,3.79989 2.3451,9.33588 2.355,9.30882 -4.6285,12.55291 -10.8229,5.02765 -24.9861,6.25216 -36.75,3.17729 z m 21.5,-1.61817 c 1.65,-0.1461 3.45,-0.38685 4,-0.53501 0.55,-0.14816 1.3219,-0.2213 1.7153,-0.16252 0.3935,0.0588 1.9685,-0.41061 3.5,-1.04306 1.5316,-0.63246 3.1222,-1.07726 3.5347,-0.98844 0.4125,0.0888 0.75,-0.28852 0.75,-0.83852 0,-0.55 0.3375,-0.9044 0.75,-0.78755 3.4996,0.99131 6.2913,-5.83284 3.1743,-7.75925 -0.4603,-0.28449 -0.5967,-1.14333 -0.303,-1.90853 0.8749,-2.27996 -3.1662,-3.85684 -5.0518,-1.97126 -0.8632,0.8632 -1.5695,1.33227 -1.5695,1.04238 0,-0.28989 -1.9125,0.18636 -4.25,1.05833 -16.822,6.27525 -38.2866,-2.79951 -38.2567,-16.17412 0.01,-3 0.01,-3 26.7303,-3.26628 24.1721,-0.24086 26.8113,-0.43181 27.6431,-2 0.759,-1.43095 0.7966,-13.52042 0.047,-15.23372 -0.1202,-0.275 -0.3232,-0.95 -0.451,-1.5 -0.1278,-0.55 -0.3177,-1.225 -0.422,-1.5 -0.1043,-0.275 -0.3793,-1.51839 -0.611,-2.7631 -0.9756,-5.23899 -11.2711,-17.07117 -13.6011,-15.63114 -0.4559,0.28175 -0.8289,-0.0393 -0.8289,-0.71341 0,-0.67413 -0.2842,-0.94152 -0.6315,-0.5942 -0.3473,0.34732 -1.5848,0.10646 -2.75,-0.53524 -1.1652,-0.6417 -2.7935,-1.35907 -3.6185,-1.59416 -2.934,-0.83605 -20.0407,-0.91189 -20.548,-0.0911 -0.2838,0.45924 -1.1766,0.5815 -1.984,0.27168 -0.8171,-0.31356 -1.468,0.001 -1.468,0.71034 0,0.70051 -0.2918,0.9819 -0.6483,0.62531 -2.0617,-2.06173 -17.3517,10.11431 -17.3517,13.8179 0,0.82342 -0.4196,1.49712 -0.9326,1.49712 -0.8964,0 -2.7763,4.39915 -1.9641,4.59631 0.2182,0.053 -0.2012,0.81682 -0.9321,1.69745 -2.4671,2.9727 -3.3803,23.08596 -1.1558,25.45624 0.1291,0.1375 0.3471,0.7 0.4846,1.25 0.1375,0.55 0.3596,1.3375 0.4935,1.75 0.1338,0.4125 0.1901,1.0875 0.125,1.5 -0.065,0.4125 0.3581,0.75 0.9406,0.75 0.5824,0 0.8183,0.38935 0.5242,0.86522 -1.4018,2.26814 10.9843,16.23387 12.7933,14.42487 0.3429,-0.34288 0.6234,-0.15302 0.6234,0.42192 0,0.88218 4.7722,3.45023 7.25,3.90142 0.4125,0.0751 1.0875,0.24611 1.5,0.37999 0.4125,0.13388 1.1349,0.17434 1.6053,0.0899 0.4704,-0.0844 1.4632,0.35103 2.2062,0.96767 0.743,0.61665 1.8171,0.83308 2.3868,0.48097 0.5697,-0.35212 1.827,-0.15376 2.7938,0.4408 1.0158,0.62464 3.6577,0.82336 6.2579,0.47071 2.475,-0.33566 5.85,-0.72983 7.5,-0.87593 z m -31.5,-46.60739 c 0,-4.63113 4.7406,-10.99294 12.5,-16.77487 5.0043,-3.72894 22.6945,2.01839 24.2248,7.87035 0.2797,1.0694 0.9326,1.94436 1.4509,1.94436 0.5183,0 0.6835,0.41891 0.367,0.9309 -0.3164,0.512 -0.193,1.16718 0.2743,1.45597 0.4673,0.28879 0.6485,1.89489 0.4028,3.5691 -0.5891,4.0141 -39.2198,5.0032 -39.2198,1.00419 z m 37,-0.89506 c 0,-13.4119 -20.5551,-19.054 -30.2776,-8.31079 -7.3414,8.1121 -5.7764,9.24569 12.7642,9.24569 10.196,0 17.5134,-0.39062 17.5134,-0.9349 z m 11,29.4349 c 0,-0.275 -0.225,-0.5 -0.5,-0.5 -0.275,0 -0.5,0.225 -0.5,0.5 0,0.275 0.225,0.5 0.5,0.5 0.275,0 0.5,-0.225 0.5,-0.5 z m 203.5,20.52402 c -35.8528,-9.21726 -20.9761,-49.02402 18.3214,-49.02402 10.4012,0 10.4012,0 9.7012,-3.73159 -2.263,-12.06273 -14.1573,-15.0241 -29.1606,-7.26022 -8.9565,4.63478 -8.6362,4.78213 -10.8166,-4.97654 -1.9231,-8.60753 -2.0373,-8.40099 6.9546,-12.58732 14.1886,-6.60573 35.0875,-5.35444 44.8405,2.68475 15.2221,12.5474 14.5792,73.87092 -0.7745,73.87092 -10.566,0 -10.566,0 -10.566,-3.60359 0,-3.60359 0,-3.60359 -3.4859,-0.54293 -5.7812,5.07596 -16.6462,7.32181 -25.0141,5.17054 z m 13.7521,-2.6267 c 3.9894,-0.52004 10.2482,-3.9466 12.5473,-6.86942 3.1846,-4.04859 5.1465,-2.45169 5.187,4.2221 0.014,2.39181 11.5575,3.45933 14.8485,1.37322 2.1729,-1.37739 1.219,-54.27338 -1.0713,-59.40462 -1.6794,-3.76279 -8.5835,-11.28798 -10.0136,-10.91448 -0.4125,0.10773 -0.75,-0.28068 -0.75,-0.86314 0,-0.58246 -0.45,-0.7809 -1,-0.44098 -0.55,0.33992 -1,0.14148 -1,-0.44098 0,-0.58246 -0.3375,-1.00573 -0.75,-0.9406 -0.4125,0.0651 -1.0875,0.009 -1.5,-0.125 -0.4125,-0.13388 -1.0875,-0.33853 -1.5,-0.45479 -0.4125,-0.11625 -1.425,-0.47177 -2.25,-0.79005 -5.1871,-2.00117 -22.6207,-1.13814 -25.514,1.26303 -0.6435,0.53407 -1.4661,0.67494 -1.828,0.31305 -0.3619,-0.3619 -0.658,-0.13299 -0.658,0.50867 0,0.64167 -0.3375,1.05967 -0.75,0.9289 -3.7806,-1.19855 -9.4725,5.48684 -7.4344,8.73207 0.6574,1.04679 0.7786,1.64098 1.0321,5.05949 0.1446,1.95001 0.5187,1.87517 7.4023,-1.48127 17.4158,-8.49185 31.7175,-2.80844 31.7445,12.6151 0.01,3.18761 0.01,3.18761 -11.2445,3.65471 -12.8196,0.53227 -13.693,0.61019 -15.75,1.4052 -0.825,0.31886 -1.8375,0.67485 -2.25,0.7911 -0.4125,0.11626 -0.8625,0.30106 -1,0.41068 -0.1375,0.10962 -1.3454,0.4007 -2.6842,0.64684 -4.4799,0.82362 -11.8318,7.68857 -12.4247,11.60168 -0.1085,0.71619 -0.4985,1.78342 -0.8666,2.37161 -1.0062,1.60779 -0.5739,11.43056 0.5031,11.43056 0.515,0 0.6774,0.675 0.3608,1.5 -0.3166,0.825 -0.1132,1.5 0.452,1.5 0.5652,0 0.7971,0.37299 0.5154,0.82887 -0.7242,1.1718 5.2437,8.17113 6.967,8.17113 0.785,0 1.4272,0.47656 1.4272,1.05902 0,0.58246 0.45,0.7809 1,0.44098 0.55,-0.33992 1,-0.11492 1,0.5 0,0.61492 0.4189,0.85914 0.9309,0.54271 0.512,-0.31644 1.2249,-0.0997 1.5842,0.48166 0.3593,0.58134 1.4029,0.82395 2.3191,0.53914 0.9162,-0.28482 2.3408,-0.0736 3.1658,0.46927 0.825,0.54292 2.625,0.70276 4,0.3552 1.375,-0.34756 3.7384,-0.79336 5.2521,-0.99066 z m -7.5021,-11.47742 c -0.9625,-0.5606 -1.764,-0.65942 -1.7812,-0.21959 -0.087,2.21579 -4.9593,-7.60112 -4.9636,-9.99997 -0.01,-4.31057 4.0702,-10.72901 7.2538,-11.41657 7.7944,-1.68336 20.5663,-2.13203 22.4056,-0.7871 2.7449,2.00715 0.1916,17.50333 -2.8841,17.50333 -0.4942,0 -0.5748,0.5625 -0.1792,1.25 0.3957,0.6875 0.3856,0.9509 -0.022,0.58533 -0.4079,-0.36557 -2.3428,0.42193 -4.2998,1.75 -3.834,2.60183 -12.1294,3.31473 -15.5291,1.33457 z m 15.0745,-3.6348 c 8.1279,-6.05801 8.964,-16.6541 1.3486,-17.09003 -12.7253,-0.72843 -20.3731,3.19133 -20.3731,10.44188 0,8.36372 11.385,12.34222 19.0245,6.64815 z m 19.1755,-53.72608 c 0,-0.24254 -0.5195,-0.76207 -1.1545,-1.15451 -0.7153,-0.44208 -0.883,-0.27432 -0.441,0.44098 0.7125,1.15275 1.5955,1.54767 1.5955,0.71353 z m 47.8478,70.58982 c -37.1772,-9.70119 -39.3528,-64.08554 -3.1301,-78.24056 11.2116,-4.38121 34.2663,-2.35288 40.1517,3.53251 2.0818,2.08183 -2.3434,17.98943 -4.7796,17.18134 -0.8744,-0.29004 -4.0648,-1.43398 -7.0898,-2.54209 -17.4483,-6.39166 -31.956,3.10576 -31.956,20.91996 0,18.10264 16.0164,27.8512 33.6519,20.48259 5.9022,-2.46606 6.8009,-2.04025 9.6734,4.58332 3.7769,8.70876 3.5994,9.42796 -2.9295,11.87073 -12.0742,4.51756 -22.2015,5.18449 -33.592,2.2122 z m 21.3189,-1.41313 c 1.4667,-0.12964 2.9732,-0.5422 3.3478,-0.91681 0.3746,-0.3746 1.3121,-0.43896 2.0833,-0.14301 0.7712,0.29595 1.4022,0.0541 1.4022,-0.53752 0,-0.59158 0.675,-0.81658 1.5,-0.5 0.825,0.31659 1.5,0.0509 1.5,-0.5904 0,-0.6413 0.45,-0.88789 1,-0.54797 0.55,0.33992 1,0.11492 1,-0.5 0,-0.61492 0.3986,-0.87172 0.8857,-0.57067 0.4871,0.30105 1.0997,-0.57239 1.3613,-1.94098 0.2616,-1.36859 0.062,-2.48835 -0.4447,-2.48835 -0.5061,0 -0.6422,-0.45 -0.3023,-1 0.34,-0.55 0.1415,-1 -0.4409,-1 -0.5825,0 -1.0058,-0.3375 -0.9406,-0.75 0.627,-3.97132 -3.9861,-5.28456 -8.6009,-2.44845 -5.3225,3.2711 -19.7684,1.08894 -25.8215,-3.90054 -22.3343,-18.40985 3.9513,-57.43194 28.8077,-42.76627 2.8614,1.68825 3.3627,1.7311 4.4815,0.38307 0.6928,-0.8348 0.9244,-1.51781 0.5147,-1.51781 -0.4097,0 -0.1847,-0.675 0.5,-1.5 0.6847,-0.825 0.8748,-1.5 0.4225,-1.5 -0.4524,0 -0.2825,-0.54 0.3775,-1.2 2.3522,-2.35214 -0.2419,-8.881 -2.8806,-7.25017 -0.5056,0.31251 -0.9194,0.0166 -0.9194,-0.65748 0,-0.67413 -0.2961,-0.92959 -0.658,-0.56769 -0.3619,0.36189 -1.2727,0.14777 -2.0241,-0.47584 -0.7514,-0.6236 -1.6514,-0.8486 -2,-0.5 -0.3486,0.34861 -1.1829,0.17811 -1.8541,-0.37887 -1.5066,-1.25041 -17.7748,-1.29164 -20.4638,-0.0519 -0.275,0.12679 -1.5693,0.42794 -2.8762,0.66921 -3.374,0.62287 -9.1238,3.47556 -9.1238,4.52664 0,0.48733 -0.5625,0.8883 -1.25,0.89103 -0.6875,0.003 -2.3962,1.01523 -3.7972,2.25 -1.401,1.23477 -1.851,1.84196 -1,1.34931 0.851,-0.49265 -0.1058,0.63235 -2.1262,2.5 -3.4396,3.17944 -7.6677,9.89572 -6.2298,9.89572 0.3565,0 0.088,0.675 -0.5968,1.5 -0.6847,0.825 -0.9097,1.5 -0.5,1.5 0.4097,0 0.1273,0.74377 -0.6275,1.65282 -0.9641,1.16098 -1.3369,4.35989 -1.2528,10.75 0.152,11.56179 0.2794,12.59718 1.5495,12.59718 0.5746,0 0.7858,0.675 0.4692,1.5 -0.3166,0.825 -0.065,1.5 0.5597,1.5 0.6244,0 0.8532,0.28205 0.5085,0.62678 -3.6301,3.63009 18.4767,22.77505 23.8969,20.69516 0.7681,-0.29476 1.3965,-0.007 1.3965,0.63846 0,0.71531 0.7739,0.92874 1.9799,0.546 1.0889,-0.3456 2.7764,-0.14407 3.75,0.44785 0.9736,0.59192 3.7951,0.83793 6.2701,0.54669 2.475,-0.29123 5.7,-0.63559 7.1667,-0.76523 z m 15.8333,-5.23571 c 0,-0.275 -0.225,-0.5 -0.5,-0.5 -0.275,0 -0.5,0.225 -0.5,0.5 0,0.275 0.225,0.5 0.5,0.5 0.275,0 0.5,-0.225 0.5,-0.5 z m 32.5,7.56493 c -13.9495,-3.39599 -16.5,-9.77161 -16.5,-41.24643 0,-21.8185 0,-21.8185 -4.3575,-21.8185 -4.3576,0 -4.3576,0 -5,-6.14669 -1.1733,-11.22531 -1.3226,-10.85331 4.3575,-10.85331 5,0 5,0 5,-9.5 0,-9.5 0,-9.5 10.5,-9.5 10.5,0 10.5,0 10.5,9.46379 0,9.46379 0,9.46379 9.75,9.75 15.6937,0.46069 15.9216,16.78621 0.2343,16.78621 -10.0965,0 -10.0965,0 -9.7904,21.09015 0.3849,26.51796 0.9062,27.23845 16.9052,23.36385 3.2961,-0.79827 5.3354,13.90117 2.2525,16.23675 -3.6388,2.75669 -16.8703,4.07376 -23.8516,2.37418 z m 12.0501,-2.14596 c 0.3675,-0.59456 1.6772,-0.82776 2.9106,-0.51821 1.2333,0.30955 2.5717,0.23352 2.9742,-0.16897 0.4025,-0.40248 1.1443,-0.78804 1.6485,-0.85679 0.5041,-0.0688 1.2541,-0.18259 1.6666,-0.25297 0.4125,-0.0704 0.8337,-2.82734 0.9359,-6.12656 0.2044,-6.59686 0.9102,-6.3054 -10.8664,-4.48712 -7.1968,1.11117 -8.8195,-4.13338 -8.8195,-28.50562 0,-21.92768 0,-21.92768 9.25,-22.2152 9.25,-0.28753 9.25,-0.28753 9.549,-6.00619 0.3458,-6.61362 -1.0437,-7.57157 -9.2065,-6.34748 -8.9228,1.33807 -9.592,0.65519 -9.5956,-9.79227 0,-9.7087 -0.3834,-9.92744 -15.2469,-8.77704 -1.527,0.11819 -1.75,1.28229 -1.75,9.13545 0,9 0,9 -2.75,9.01365 -5.7533,0.0286 -7.4649,1.02403 -6.658,3.8724 0.4072,1.43767 0.7063,3.73754 0.6646,5.11081 -0.092,3.01694 1.2093,3.96759 5.4569,3.98783 3.2135,0.0153 3.2135,0.0153 3.6378,22.26531 0.3704,19.42545 0.869,28.25 1.5963,28.25 0.113,0 0.3649,0.84642 0.5597,1.88093 0.4439,2.35748 6.5158,8.72287 7.6512,8.02114 0.4628,-0.28606 0.8415,-0.0577 0.8415,0.50753 0,0.5652 0.675,0.76861 1.5,0.45203 0.825,-0.31659 1.5,-0.0471 1.5,0.59877 0,0.65924 0.7677,0.93551 1.75,0.62982 0.9625,-0.29951 2.425,-0.11173 3.25,0.4173 2.0294,1.30131 6.7252,1.24624 7.5501,-0.0886 z m -714.5501,-52.98495 c 0,-54.13364 0,-54.13364 25.25,-53.69945 43.2249,0.74329 53.7656,8.09258 52.5688,36.65249 -1.0178,24.28733 -13.8158,34.11294 -44.4327,34.11294 -11.3409,0 -11.3409,0 -11.6135,18.25 -0.2726,18.25 -0.2726,18.25 -11.0226,18.53383 -10.75,0.28383 -10.75,0.28383 -10.75,-53.84981 z m 17.5149,51.04193 c 0.3481,-0.56322 0.7828,-8.48637 0.966,-17.607 0.4113,-20.47157 -2.9722,-18.3117 30.2691,-19.32291 1.2375,-0.0376 2.25,-0.54373 2.25,-1.12463 0,-0.60111 0.8618,-0.78268 2,-0.42141 1.1,0.34913 2,0.25021 2,-0.21981 0,-0.47002 0.972,-0.9278 2.1601,-1.01729 1.188,-0.0895 2.5311,-0.74775 2.9846,-1.46281 0.4536,-0.71505 0.8316,-0.95222 0.84,-0.52704 0.01,0.42518 1.1782,0.0111 2.5994,-0.92009 3.2683,-2.14144 9.5609,-10.30945 8.8404,-11.47515 -0.2984,-0.4828 -0.018,-0.87781 0.6235,-0.87781 0.6413,0 0.9125,-0.66059 0.6027,-1.46797 -0.3098,-0.80739 -0.1526,-1.7218 0.3493,-2.03203 0.502,-0.31023 0.6767,-1.17912 0.3882,-1.93087 -0.2885,-0.75176 -0.1298,-1.6108 0.3527,-1.90898 1.0662,-0.65894 0.9263,-14.77161 -0.1639,-16.53558 -0.4275,-0.6917 -0.525,-1.50985 -0.2168,-1.81812 1.5664,-1.56636 -6.5933,-14.89843 -8.4253,-13.76617 -0.5142,0.31777 -0.9349,0.11275 -0.9349,-0.45558 0,-1.29767 -5.5251,-4.22627 -6.3732,-3.37815 -0.3447,0.34473 -0.6268,0.0752 -0.6268,-0.5989 0,-0.67413 -0.4189,-0.96679 -0.9309,-0.65036 -0.512,0.31644 -1.1958,0.14663 -1.5197,-0.37735 -0.3238,-0.52397 -1.3674,-0.97716 -2.3191,-1.00709 -0.9516,-0.0299 -3.3053,-0.33445 -5.2303,-0.67671 -11.9839,-2.13071 -44.7386,-1.57465 -45.252,0.76823 -0.3752,1.71218 -0.2055,86.0171 0.2014,100.08563 0.058,2.00551 13.3648,2.66873 14.5655,0.72595 z m 11.4851,-50.75419 c -9.953,-0.32581 -15.3038,-20.68381 -9.4868,-36.09429 0.4486,-1.18846 17.1013,-1.14592 28.2069,0.0721 1.7837,0.19563 9.7201,7.11477 10.1312,8.83264 4.5148,18.8673 -5.1397,27.96578 -28.8513,27.18959 z m 18.7308,-4.70918 c 10.9943,-4.45502 11.6257,-22.72358 0.9529,-27.5692 -16.9408,-7.69138 -26.6837,-2.50725 -26.6837,14.19823 0,16.66202 7.7151,20.67115 25.7308,13.37097 z m 41.5078,18.73742 c 0.2614,-39.75 0.2614,-39.75 10.2614,-39.75 10,0 10,0 10.5,4.31776 0.5,4.31776 0.5,4.31776 3.9728,0.7226 4.9992,-5.17549 15.4244,-7.88055 22.7772,-5.91007 5.0894,1.36388 3.1337,21.70085 -2,20.79843 -19.0038,-3.34057 -23.8294,3.99952 -24.5361,37.32128 -0.4718,22.25 -0.4718,22.25 -10.8543,22.25 -10.3825,0 -10.3825,0 -10.121,-39.75 z m 18.2053,35 c 0.3316,-1.5125 0.5681,-9.95 0.5257,-18.75 -0.097,-20.20082 0.087,-21.96012 2.9138,-27.77719 3.912,-8.0506 11.7696,-12.29675 21.1293,-11.41812 4.9873,0.46818 4.9873,0.46818 4.9873,-7.58492 0,-4.42921 -0.2841,-7.76894 -0.6314,-7.42162 -0.3474,0.34732 -1.494,0.1699 -2.5481,-0.39425 -2.4094,-1.28945 -12.1558,0.5743 -14.3198,2.73829 -0.8254,0.82537 -1.5007,1.16508 -1.5007,0.75492 0,-0.41015 -1.1111,0.29812 -2.4691,1.57394 -1.3581,1.27582 -2.2296,2.70744 -1.9367,3.18137 0.2929,0.47394 -0.1709,1.13167 -1.0308,1.46163 -0.8598,0.32996 -1.5634,1.22678 -1.5634,1.99294 0,0.76615 -0.675,1.39301 -1.5,1.39301 -1.1485,0 -1.5,-1.26801 -1.5,-5.4121 0,-6.23758 -3.8636,-7.84677 -14.25,-5.93513 -3.0991,0.57041 -4.5624,72.44924 -1.5,73.68495 4.8449,1.95495 14.6016,0.61433 15.1939,-2.08772 z m 2.5561,-62.75 c 0,-0.275 -0.225,-0.5 -0.5,-0.5 -0.275,0 -0.5,0.225 -0.5,0.5 0,0.275 0.225,0.5 0.5,0.5 0.275,0 0.5,-0.225 0.5,-0.5 z m 130,10.5 c 0,-57 0,-57 10.5,-57 10.5,0 10.5,0 10.5,57 0,57 0,57 -10.5,57 -10.5,0 -10.5,0 -10.5,-57 z m 18.119,5.80202 c 0.065,-27.11611 0.1339,-50.20202 0.1522,-51.30202 0.1634,-9.82257 0.4443,-9.5 -8.2712,-9.5 -8,0 -8,0 -8,54.85921 0,54.8592 0,54.8592 8,55.05202 8,0.19281 8,0.19281 8.119,-49.10921 z m -15.119,-59.30202 c 0,-0.275 0.225,-0.5 0.5,-0.5 0.275,0 0.5,0.225 0.5,0.5 0,0.275 -0.225,0.5 -0.5,0.5 -0.275,0 -0.5,-0.225 -0.5,-0.5 z m 133,66.53275 c 0,-44.03275 0,-44.03275 -15.5,-44.03275 -15.5,0 -15.5,0 -15.5,-10.01097 0,-10.01097 0,-10.01097 41.75,-9.75 41.75,0.26097 41.75,0.26097 41.75,9.76097 0,9.5 0,9.5 -14.7395,9.77667 -14.7395,0.27668 -14.7395,0.27668 -15,44 -0.2605,43.72333 -0.2605,43.72333 -11.5105,44.00608 -11.25,0.28275 -11.25,0.28275 -11.25,-43.75 z m 19.393,40.38546 c 0.3339,-0.86998 0.607,-20.62184 0.607,-43.89301 0,-37.65981 0.1739,-42.37795 1.5818,-42.91821 0.87,-0.33385 7.3593,-0.60699 14.4206,-0.60699 14.526,0 14.4685,0.0432 13.7969,-10.36182 -0.4795,-7.42893 -78.384,-7.31648 -78.1492,0.11281 0.3655,11.56467 -1.544,10.24901 14.8747,10.24901 18.3579,0 16.6313,-4.84213 16.1901,45.40313 -0.1937,22.05328 -0.1563,40.88437 0.083,41.84687 0.6146,2.47109 15.6528,2.62352 16.595,0.16821 z m 42.8483,-50.16821 c 0.2734,-56.79137 3.4937,-60.27522 49.2118,-53.23896 31.328,4.82154 39.1686,49.28006 11.0552,62.68641 -3.2587,1.55399 -3.2587,1.55399 10.1165,21.90099 16.2511,24.72193 16.1807,22.52331 0.71,22.18144 -12.6651,-0.27988 -12.6651,-0.27988 -24.8182,-19.27988 -18.2038,-28.45955 -23.5166,-28.47082 -23.5166,-0.0499 0,19.5499 0,19.5499 -11.5087,19.5499 -11.5086,0 -11.5086,0 -11.25,-53.75 z m 20.7587,32.11404 c 0,-25.50446 8.8441,-28.65967 22.0431,-7.86404 4.0144,6.325 7.672,11.5 8.128,11.5 0.4559,0 0.8289,0.41775 0.8289,0.92833 0,1.58946 7.1818,13.07167 8.1759,13.07167 0.5182,0 0.6983,0.39467 0.4001,0.87703 -0.2981,0.48237 3.9504,0.95444 9.441,1.04904 5.4907,0.0946 9.983,-0.12635 9.983,-0.49101 0,-1.32975 -9.233,-15.43506 -10.1035,-15.43506 -0.493,0 -0.784,-0.36261 -0.6465,-0.8058 0.3163,-1.01946 -4.4927,-8.17819 -5.5,-8.18737 -0.4125,-0.004 -0.7509,-0.56933 -0.752,-1.25683 -10e-4,-0.6875 -2.0261,-4.32933 -4.5,-8.09295 -5.4253,-8.25375 -5.487,-6.99393 0.502,-10.25357 2.75,-1.49673 5,-3.12638 5,-3.62143 0,-0.49504 0.4,-0.65291 0.8888,-0.35081 0.9462,0.58479 5.8355,-5.26433 6.3217,-7.56272 0.1593,-0.75269 0.6769,-1.65091 1.1504,-1.99605 0.4735,-0.34514 0.9637,-1.92014 1.0893,-3.5 0.1257,-1.57986 0.5683,-3.64526 0.9836,-4.58978 0.9107,-2.07121 -0.2565,-16.3702 -1.4311,-17.53269 -0.139,-0.1375 -0.3652,-0.7 -0.5027,-1.25 -0.1375,-0.55 -0.3595,-1.3375 -0.4934,-1.75 -0.1339,-0.4125 -0.1897,-1.08861 -0.1242,-1.50246 0.2307,-1.45573 -9.7363,-10.95582 -10.8028,-10.29671 -0.5938,0.36696 -1.0796,0.16409 -1.0796,-0.45083 0,-0.61492 -0.45,-0.83992 -1,-0.5 -0.55,0.33992 -1,0.11492 -1,-0.5 0,-0.61492 -0.4189,-0.85914 -0.9309,-0.54271 -0.512,0.31644 -1.2325,0.0873 -1.6011,-0.50915 -0.3687,-0.59647 -1.2853,-0.84846 -2.0371,-0.55999 -0.7517,0.28848 -1.6285,0.10104 -1.9484,-0.41652 -0.3199,-0.51756 -1.5718,-0.98004 -2.782,-1.02774 -34.3483,-1.35356 -44.4324,-1.07708 -45.0516,1.2352 -0.8149,3.04297 -0.8369,98.1673 -0.023,100.28774 4.8761,12.70695 17.3743,-0.31528 17.3743,-18.10279 z m 0.2262,-51.55193 c 0.2912,-18.41172 9.4703,-23.44919 27.4483,-15.06362 19.4004,9.04901 9.0681,31.76904 -14.6251,32.15976 -13.0971,0.21598 -13.0971,0.21598 -12.8232,-17.09614 z m 26.5681,12.81138 c 9.8729,-5.15667 9.8039,-21.17878 -0.1106,-25.68011 -15.9663,-7.24894 -24.6837,-2.59245 -24.6837,13.18507 0,15.33711 9.8495,20.30074 24.7943,12.49504 z M 484.66493,688.099 c 0,-17.09497 -0.9511,-19.25293 -9.9132,-22.49101 -8.3774,-3.02679 -50.0905,-14.5893 -50.6422,-14.03757 -1.5476,1.54752 -4.4256,17.51986 -5.0328,27.92987 -1.5911,27.28163 -23.4195,26.99894 -23.4077,-0.30315 0.023,-53.77718 29.0861,-92.44734 109.9959,-146.35664 63.7278,-42.4611 85.2143,-63.94451 95.0056,-94.99223 2.6038,-8.25646 4.145,-31.5 2.0887,-31.5 -1.8651,0 -31.2856,6.64964 -46.0717,10.41317 -17.266,4.39472 -17.0226,4.12062 -17.0226,19.16806 0,11.35966 0.4536,34.85805 -7.2328,41.41651 -11.3022,9.6435 -44.9755,35.50065 -46.232,35.50065 -0.7519,0 -1.082,-9.37143 -1.0831,-30.75 0,-35.38109 -0.704,-60.17458 -7.9521,-62.57077 -5.8304,-1.92751 -36.7546,-9.86229 -45.5,-11.67476 -4.125,-0.8549 -8.3467,-1.81691 -9.3816,-2.13779 -3.3212,-1.02974 -1.8311,24.3712 2.1014,35.82279 8.8026,25.63344 31.5017,49.59322 72.7542,76.795 11.6913,7.70916 11.6943,7.42235 -0.1654,15.52038 -11.7467,8.02085 -10.2069,8.27509 -27.2084,-4.49245 -106.8799,-80.2629 -98.1209,-162.25227 25.8864,-242.3118 39.5763,-25.55056 65.7209,-46.43376 81.0411,-64.73202 3.9687,-4.74023 3.9687,-4.74023 -9.961,-0.45306 -7.6614,2.35795 -15.8499,4.61156 -18.1966,5.00804 -7.4881,1.26511 -9.4199,4.27327 -10.2404,15.94641 -0.8139,11.57766 -0.2671,10.73995 -13.7581,21.08102 -14.9404,11.45212 -35.2042,23.45062 -39.6048,23.45062 -7.6159,0 -51.2445,-40.93795 -66.9795,-62.84885 -26.8795,-37.42957 -32.592,-97.18292 -8.8652,-92.73175 7.2669,1.36329 8.9378,4.94738 9.7282,20.86735 0.6607,13.30905 2.9533,25.30114 5.8836,30.77652 1.4183,2.65019 33.5464,13.04384 52.1566,16.87304 35.9132,7.38942 69.8626,3.42753 117.3095,-13.69003 7.3289,-2.64407 11.5,-16.71799 11.5,-38.80286 0,-12.36243 6.6166,-18.33017 16.0095,-14.43951 6.2223,2.57737 7.4211,5.87662 7.4323,20.45365 0.043,55.94932 -32.7292,97.40484 -125.4418,158.68019 -31.353,20.72178 -49.5951,36.58261 -63.1921,54.94325 -8.0042,10.80836 -10.269,14.82711 -8.6395,15.33056 52.872,16.33538 86.6227,17.10823 146.5802,3.35647 16.4922,-3.78263 15.9467,-2.84342 8.3491,-14.37605 -11.252,-17.07973 -31.637,-36.28214 -56.5977,-53.31408 -14.3978,-9.82442 -14.2651,-8.90763 -2.5,-17.27201 12.4041,-8.81859 23.9577,-3.01933 54.0469,27.12864 78.8036,78.95748 59.9623,143.43825 -66.5507,227.75742 -30.0769,20.04584 -42.9516,29.88456 -55.4413,42.36747 -9.7978,9.79249 -25.3971,29.0443 -24.3029,29.99338 0.4114,0.35684 8.623,2.73573 18.248,5.28641 51.7356,13.71023 66.2979,13.3015 126.8105,-3.55927 13.2806,-3.70042 -12.4078,-33.41244 -54.5605,-63.10612 -9.3284,-6.57128 -1.0686,-20.67382 12.1087,-20.67382 6.6125,0 47.9149,37.56383 62.1366,56.51217 28.6838,38.21686 38.3494,96.48783 16.0047,96.48783 -8.6236,0 -10.7252,-3.28282 -11.593,-18.1089 -0.8089,-13.82043 -4.3347,-31.01814 -6.2266,-30.37133 -0.6492,0.22194 -12.4304,3.58682 -26.1804,7.47751 -36.8984,10.44075 -34,8.01464 -34,28.45938 0,14.04334 0,14.04334 -26.75,14.30967 -26.75,0.26634 -26.75,0.26634 -26.75,-13.0156 z m 50.8258,10.37812 c 1.0097,-0.64015 1.2608,-3.7952 1.0533,-13.23469 -0.2887,-13.13249 0.8255,-17.5953 4.9429,-19.79887 5.386,-2.88253 58.5364,-17.13409 59.3044,-15.90169 2.0123,3.22901 5.1535,20.31907 5.6336,30.65037 1.1877,25.55355 19.24,25.1921 19.24,-0.38524 0,-44.18472 -24.8113,-84.40272 -76.2759,-123.63988 -5.6232,-4.28721 -10.8069,-7.80032 -11.5192,-7.80689 -1.0857,-0.01 -14.9234,8.66876 -17.5165,10.98607 -0.4465,0.39893 3.7682,3.9952 9.3658,7.9917 25.722,18.36443 60.9458,53.49224 60.9458,60.77969 0,2.27472 -43.1058,13.60092 -62,16.2907 -7.6324,1.08655 -39.998,0.9456 -39.9993,-0.1742 -4e-4,-0.33774 -2.1142,-0.90377 -4.6975,-1.25784 -11.5198,-1.57897 -51.3032,-12.51429 -51.3032,-14.1018 0,-10.9799 38.4606,-45.80921 85,-76.97473 119.1053,-79.75981 138.3501,-140.96527 68.105,-216.59832 -28.9103,-31.12769 -45.519,-40.61809 -56.9662,-32.55102 -9.7295,6.85655 -9.609,6.14583 -1.88,11.09138 27.478,17.58238 52.2207,41.27695 64.9048,62.15538 5.1997,8.55882 5.8637,8.09765 -19.6636,13.6564 -53.3058,11.60772 -73.8844,11.45627 -124.75,-0.9181 -20.2881,-4.93563 -19.9671,-4.71647 -16.3017,-11.12711 12.8964,-22.55531 33.9335,-41.83536 76.6166,-70.21757 86.9244,-57.80058 120.0978,-100.55562 119.9085,-154.54259 -0.094,-26.88454 -18.9968,-26.39727 -20.2879,0.52299 -0.6494,13.54169 -3.2873,27.19416 -6.0769,31.45164 -2.2279,3.40027 -40.7979,15.20597 -62.6086,19.16355 -12.8451,2.33077 -39.7976,2.32734 -53.457,-0.007 -24.4908,-4.18504 -60.2571,-15.67465 -62.3872,-20.04136 -3.4599,-7.09272 -5.3132,-16.45542 -5.8572,-29.59002 -0.6529,-15.76376 -1.5942,-18.40906 -7.142,-20.07125 -23.7356,-7.11136 -15.5254,55.48125 12.1039,92.27766 15.5516,20.71137 56.4457,58.80402 63.1152,58.79147 4.2475,-0.008 31.2785,-16.76584 43.2158,-26.79164 7.4964,-6.29604 8.2309,-7.96753 8.3509,-19.0059 0.1131,-10.39979 1.7285,-11.79747 19.3518,-16.74376 6.7132,-1.88417 15.4564,-4.41965 19.4293,-5.6344 24.7297,-7.5613 -22.902,35.57947 -79.7235,72.20678 -110.3914,71.15869 -127.7564,148.46439 -49.1268,218.7041 8.9582,8.00237 35.977,28.88849 38.7449,29.95061 1.6351,0.62747 19.8319,-11.65669 18.7361,-12.64829 -0.4698,-0.42513 -5.5792,-3.92259 -11.3542,-7.77215 -50.7207,-33.80991 -72.4252,-62.73999 -73.7413,-98.2903 -0.6826,-18.43696 -0.7548,-18.42847 46.1026,-5.41176 22.8016,6.33418 21.4616,26.36797 22.0923,65.29536 0.5,30.85814 0.5,30.85814 14.6035,20 22.4938,-17.31773 35.2189,-27.79947 34.731,-28.60814 -0.2489,-0.4125 0.024,-0.75 0.6065,-0.75 0.6816,0 0.6054,-27.44252 0.6054,-34.56413 0,-16.36321 -0.6076,-15.83541 25.6998,-22.32395 44.3455,-10.93754 42.2707,-11.10393 42.2676,3.38969 -0.01,40.21367 -24.2508,69.09175 -99.5524,118.59062 -55.5661,36.52594 -77.9936,57.89689 -94.7142,90.25226 -13.9302,26.95576 -18.6589,64.8277 -8.7562,70.12748 8.8217,4.72118 13.5537,-0.42304 14.4507,-15.70931 1.8089,-30.8256 2.7688,-31.82109 24.8769,-25.8004 45.5118,12.39438 44.7278,11.81614 44.7278,32.98989 0,11.22191 35.9741,19.82645 48.8258,11.67851 z M 475.63813,251.6464 c -15.0759,-11.95616 -34.7419,-32.86275 -32.7687,-34.83592 0.2129,-0.21289 4.6415,0.87998 9.8413,2.42858 5.1998,1.54861 12.8292,3.61935 16.9542,4.60164 15.2572,3.63319 16.4681,5.23812 16.4866,21.85131 0.016,14.51877 0.1735,14.42975 -10.5134,5.95439 z m 8.8738,-7.23206 c -0.4702,-13.73709 -1.3384,-14.92465 -13.1926,-18.04508 -4.4849,-1.18057 -12.0975,-3.19993 -16.9169,-4.48745 -11.121,-2.97106 -3.7779,6.52051 20.7625,26.83701 10.1606,8.41176 9.7882,8.5833 9.347,-4.30448 z m 17.153,392.34199 c -16.7221,-7.23189 -20.1539,-31.5608 -6.1436,-43.55311 19.3753,-16.5845 47.9512,3.80957 39.6157,28.27292 -4.5664,13.40174 -20.7416,20.7858 -33.4721,15.28019 z m 18.7822,-1.96111 c 15.1668,-6.33557 18.9352,-26.75425 7.1262,-38.61385 -17.7539,-17.83015 -45.8662,1.1949 -37.3658,25.28745 4.211,11.93526 18.4976,18.23129 30.2396,13.3264 z m -16.7822,-244.98353 c -17.6597,-5.48347 -23.8571,-28.6755 -11.5527,-43.23303 12.2409,-14.48242 36.019,-10.82166 43.8984,6.75839 9.244,20.62475 -10.7564,43.17825 -32.3457,36.47464 z m 18.6906,-3.30558 c 9.8203,-5.00992 15.5307,-16.45147 13.4304,-26.90955 -5.9519,-29.63691 -48.2352,-24.91821 -48.099,5.36773 0.08,17.70697 19.0636,29.50292 34.6686,21.54182 z m -16.3642,-188.21772 c -15.7246,-3.05081 -25.4735,-19.6025 -20.8709,-35.43475 4.5922,-15.79688 24.1302,-24.08092 38.8632,-16.47793 27.7754,14.33352 12.6879,57.86508 -17.9923,51.91268 z m 15.6612,-4.10335 c 19.201,-8.27704 20.1771,-36.29071 1.6071,-46.12251 -5.7514,-3.04505 -17.4274,-3.05957 -23.0947,-0.0287 -29.1107,15.56837 -8.794,59.2048 21.4876,46.15122 z"
       id="path165"
       sodipodi:nodetypes="ssssssssssssssssssssssssssssssssssssssssssssssssssssssssssssssssssssssssssssssssssssssssssssssssssscssssscsssssssssssssssssssssssssssssssssssssssssssssssssssssssssssscssssssssssssssssscssssssssssssssssssssssscssssssssssssssssssssssssssssssssssssssscssssssssssssssssssssssssssssssssssssssssssssssssssssssssssssssssssscsssssssssssssssssssssssssssssssscsssssssssssssssssssssssssssssssssssssssscsssssssssssssssssssssssssscsssscsssssssssssssssssssssssssssssssssssssssssssssssssssssssssssssssssssscsssssssssssssssssssssscsssssssssssssssssssssssssssssssssssssssssssssssssssssssssssssssssssssssssscsssssssssssssssssssssscsssssssssssssssssssssssssssssssscssssssssss" />
  </g>
</svg>
